<?xml version="1.0" encoding="iso-8859-1"?>
<!-- Generator: Adobe Illustrator 16.0.0, SVG Export Plug-In . SVG Version: 6.00 Build 0)  -->
<!DOCTYPE svg PUBLIC "-//W3C//DTD SVG 1.1//EN" "http://www.w3.org/Graphics/SVG/1.1/DTD/svg11.dtd">
<svg version="1.1" id="Capa_1" xmlns="http://www.w3.org/2000/svg" xmlns:xlink="http://www.w3.org/1999/xlink" x="0px" y="0px"
	 width="53.937px" height="53.938px" viewBox="0 0 53.937 53.938"
	 xml:space="preserve">
<g>
	<path d="M8.21,29.234c-0.061,0.271,0.068,0.555,0.315,0.688c0.241,0.129,0.558,0.077,0.747-0.117
		c0.083-0.088,8.433-8.67,13.157-9.534c-0.302,2.441-1.092,9.863-0.163,14.042c0.054,0.234,0.239,0.421,0.474,0.474
		c0.045,0.01,0.091,0.015,0.137,0.015c0.192,0,0.378-0.091,0.495-0.242c0.21-0.272,5.119-6.726,5.796-14.499
		c4.715,0.636,13.293,8.327,13.659,8.657c0.194,0.179,0.497,0.212,0.735,0.078c0.235-0.138,0.354-0.41,0.295-0.677
		c-1.905-8.498-6.561-11.168-8.665-11.956c0.938-0.953,3.018-2.393,7.021-2.393c1.246,0,2.602,0.146,4.029,0.434
		c0.037,0.007,0.081,0.01,0.142,0.012c0.368-0.019,0.626-0.276,0.626-0.625c0-0.237-0.131-0.45-0.319-0.543
		c-0.588-0.477-3.804-2.856-9.479-2.856c-2.003,0-4.105,0.304-6.255,0.905c-0.062-2.034-0.741-8.065-6.401-11.027
		c-0.21-0.112-0.48-0.088-0.672,0.058c-0.191,0.146-0.281,0.395-0.23,0.632c0.452,2.016,1.532,7.698,1.255,10.388
		c-1.582-1.172-5.283-2.979-13.049-2.979c-1.376,0-2.841,0.058-4.355,0.173C7.198,8.365,6.956,8.605,6.929,8.914
		C6.905,9.222,7.104,9.498,7.403,9.572c2.713,0.667,10.016,2.99,11.656,5.784C16.869,16.385,10.237,20.196,8.21,29.234z
		 M20.099,16.264c0.316-0.116,0.483-0.457,0.381-0.777c-0.887-2.786-5.88-4.923-9.219-6.065c0.201-0.002,0.4-0.003,0.598-0.003
		c10.135,0,12.899,3.252,12.925,3.283c0.136,0.178,0.379,0.267,0.577,0.24c0.221-0.028,0.411-0.174,0.496-0.38
		c0.868-2.085-0.14-7.925-0.684-10.652c4.984,3.524,4.535,9.912,4.528,9.977c-0.017,0.208,0.071,0.409,0.234,0.538
		c0.16,0.128,0.384,0.169,0.576,0.108c2.311-0.723,4.562-1.09,6.697-1.09c2.587,0,4.622,0.55,6.021,1.107
		c-0.348-0.02-0.688-0.029-1.02-0.029c-6.417,0-8.542,3.509-8.631,3.658c-0.103,0.177-0.112,0.392-0.027,0.576
		c0.085,0.186,0.256,0.318,0.456,0.354c0.056,0.01,5.552,1.143,8.107,9.341c-2.986-2.515-9.6-7.679-13.528-7.679
		c-0.332,0-0.605,0.259-0.623,0.589c-0.326,5.742-3.273,10.951-4.72,13.186c-0.568-5.005,0.512-12.804,0.524-12.883
		c0.024-0.18-0.03-0.361-0.149-0.496c-0.117-0.137-0.289-0.215-0.472-0.215c-3.875,0-10.186,5.552-13.081,8.311
		C12.942,18.988,20.027,16.291,20.099,16.264z"/>
	<path d="M39.475,53.741c0.117-0.124,0.179-0.293,0.169-0.464c-0.049-0.888-1.245-21.811-5.646-27.987
		c-0.115-0.165-0.308-0.263-0.51-0.263h-2.631c-0.34,0-0.62,0.276-0.625,0.615c-0.004,0.23-0.437,23.057-4.362,27.242
		c-0.171,0.182-0.218,0.446-0.119,0.678c0.1,0.229,0.325,0.376,0.573,0.376h12.697C39.191,53.938,39.356,53.866,39.475,53.741z
		 M27.538,52.688c3.266-5.674,3.844-22.69,3.932-26.411h1.688c3.597,5.542,4.942,22.661,5.197,26.411H27.538z"/>
</g>
<g>
</g>
<g>
</g>
<g>
</g>
<g>
</g>
<g>
</g>
<g>
</g>
<g>
</g>
<g>
</g>
<g>
</g>
<g>
</g>
<g>
</g>
<g>
</g>
<g>
</g>
<g>
</g>
<g>
</g>
</svg>
